<svg width="64" height="64" viewBox="0 0 64 64" fill="none" xmlns="http://www.w3.org/2000/svg">
  <rect x="4" y="4" width="56" height="56" rx="16" fill="white"/>
  <circle cx="32" cy="32" r="24" fill="#232323"/>
  <path d="M32 17C23.716 17 17 23.716 17 32C17 40.284 23.716 47 32 47C38.421 47 43.895 42.957 46.013 37.279C46.735 35.346 45.28 33.297 43.214 33.297H41.164C39.928 33.297 38.802 34.023 38.282 35.149C37.214 37.465 34.876 39.07 32.163 39.07C28.434 39.07 25.408 36.074 25.408 32.374C25.408 28.641 28.434 25.649 32.163 25.649C34.876 25.649 37.214 27.254 38.282 29.57C38.802 30.696 39.928 31.422 41.164 31.422H43.214C45.28 31.422 46.735 29.373 46.013 27.44C43.895 21.615 38.421 17 32 17Z" fill="#232323"/>
  <circle cx="31.988" cy="31.988" r="4.012" fill="#232323"/>
  <path d="M29.541 26.428C28.1 26.428 27.36 24.699 28.581 23.93C30.451 22.744 32.663 22.056 35.03 22.056C39.259 22.056 42.985 24.236 45.119 27.544C46.114 29.087 45.021 31.086 43.181 31.086H41.18C40.018 31.086 38.943 30.468 38.273 29.519C37.203 28.009 35.445 27.019 33.455 27.019C32.061 27.019 30.783 27.499 29.772 28.296C29.309 28.654 28.714 28.839 28.13 28.839H27.963C25.307 28.839 24.222 25.508 26.359 23.924" fill="white"/>
  <path d="M29.541 37.572C28.1 37.572 27.36 39.301 28.581 40.07C30.451 41.256 32.663 41.944 35.03 41.944C39.259 41.944 42.985 39.764 45.119 36.456C46.114 34.913 45.021 32.914 43.181 32.914H41.18C40.018 32.914 38.943 33.532 38.273 34.481C37.203 35.991 35.445 36.981 33.455 36.981C32.061 36.981 30.783 36.501 29.772 35.704C29.309 35.346 28.714 35.161 28.13 35.161H27.963C25.307 35.161 24.222 38.492 26.359 40.076" fill="white"/>
</svg>
